<svg viewBox="0 0 114.3 145.1" xmlns="http://www.w3.org/2000/svg">
  <path fill="#873180" d="m83.2 53.2c0 1.5-1.2 2.7-2.7 2.7h-48c-1.5 0-2.7-1.2-2.7-2.7s1.2-2.7 2.7-2.7h48c1.5 0 2.7 1.2 2.7 2.7zm0-21.5c0 1.5-1.2 2.7-2.7 2.7h-48c-1.5 0-2.7-1.2-2.7-2.7s1.2-2.7 2.7-2.7h48c1.5 0 2.7 1.2 2.7 2.7zm5.3 10.7c0 1.5-1.2 2.7-2.7 2.7h-57.9c-1.5 0-2.7-1.2-2.7-2.7s1.2-2.7 2.7-2.7h57.9c1.5 0 2.7 1.2 2.7 2.7zm-15-42.4h-32.7c-22.5 0-40.8 18.9-40.8 42.2 0 17.5 10.2 32.8 25.6 39.2v63.7l27-77.8h-11.8c-13.1 0-23.8-11.3-23.8-25.1s10.7-25.1 23.8-25.1h32.7c13.1 0 23.8 11.3 23.8 25.1s-10.7 25.1-23.8 25.1h-11.7l-6 17.1h17.7c22.5 0 40.8-18.9 40.8-42.2s-18.3-42.2-40.8-42.2z"/>
</svg>
