<?xml version="1.0" encoding="utf-8"?>
<svg viewBox="0 0 313.998 316.824" xmlns="http://www.w3.org/2000/svg">
  <path fill="#633b9f" d="M278.646 110.623C261 92.977 239.23 82.059 216.454 77.62c.206 3.018.344 6.05.344 9.115a131.18 131.18 0 0 1-9.315 48.64 61.857 61.857 0 0 1 29.821 16.588c24.303 24.298 24.303 63.698 0 87.996l-.177.172c-24.293 24.308-63.688 24.293-87.99 0a61.91 61.91 0 0 1-16.733-30.558 131.183 131.183 0 0 1-47.19 8.752c-3.606 0-7.164-.187-10.698-.469 4.256 23.299 15.265 45.607 33.284 63.617 47.123 47.137 123.54 47.137 170.673.004l.173-.177c47.132-47.137 47.132-123.55 0-170.678"/>
  <path fill="#33bccf" d="M95.065 95.067c-21.744 21.749-57.013 21.749-78.762 0-21.74-21.75-21.74-57.013 0-78.757 21.75-21.744 57.018-21.744 78.762 0 21.749 21.744 21.749 57.007 0 78.761"/>
  <path fill="#66cde2" d="M147.046 149.87a24.475 24.475 0 1 1-34.608-34.609 24.475 24.475 0 0 1 34.608 34.609"/>
  <path fill="#98dde7" d="M202.887 205.72a13.502 13.502 0 1 1-19.095-19.095 13.502 13.502 0 1 1 19.095 19.095"/>
</svg>
