<?xml version="1.0" encoding="UTF-8"?>
<svg viewBox="0 0 187.09 112.38" xmlns="http://www.w3.org/2000/svg">
  <style>
    path {
      fill: #673366
    }

    @media (prefers-color-scheme: dark) {
      path {
        fill: #fff
      }
    }
  </style>
  <path d="M82.79 74.088l-.363 3.434h3.493l-1.853 17.625H80.66l-.361 3.436h13.514l.36-3.436h-2.111l1.617-15.373c1.749-1.125 3.33-1.688 4.626-1.688 1.914 0 2.64 1.127 2.369 3.717L99.27 95.147h-1.914l-.361 3.436h13.373l.363-3.436h-3.352l1.449-13.795c.527-5.012-1.754-7.939-6.092-7.939-2.588 0-5.643 1.182-8.744 3.377l.285-2.701H82.79zm98.48 9.36c-3.69-2.422-4.093-2.871-3.939-4.336.118-1.125 1.452-2.027 2.862-2.027 2.138 0 3.62 1.408 4.048 3.773h2.084l.76-7.209h-2.48l-.116 1.127c-1.326-.789-2.965-1.24-4.881-1.24-5.068 0-9.066 3.211-9.521 7.547a6.953 6.953 0 0 0 2.098 5.742c.674.564 1.648 1.465 3.104 2.648.516.451 1.035.844 1.449 1.182 1.895 1.295 2.332 1.916 2.209 3.098s-1.477 2.252-2.881 2.252c-2.592 0-4.525-1.971-4.943-4.955h-2.195l-.854 8.109h2.117l.836-1.408c1.426.9 3.326 1.51 5.748 1.51 5.463 0 9.652-3.256 10.1-7.535.33-3.155-1.032-5.181-5.605-8.278zm-51.49-16.891l-8.41 4.116-.397 3.352h-3.909l-.375 3.381-.158.115h3.963l-1.336 13.207c-.504 5.057 2.06 8.211 7.055 8.211 3.373 0 4.934-.426 7.355-1.746.174-.098.318-.217.44-.352l-.585-2.881c-2.568 1.553-3.648 1.283-5.129.346l.012-.006c-.916-.641-1.066-2.236-.814-4.777l1.215-12.002h6.55l.351-3.424h-6.549zm27.704 10.965h2.752l-6.642 11.984-3.119-11.984h2.787l.36-3.434h-13.823l-.362 3.434h3.266l5.37 20.152-8.583 14.705h7.037l17.02-34.857h2.864l.359-3.434h-8.925zM29.164 46.944s15.12-4.38 27.393-4.064c12.91.33 25.104 4.618 27.565 5.345 1.71.504 3.66.236 4.13-1.417.23-.817.354-2.724-2.834-5.52-9.15-8.026-20.07-10.833-20.07-10.833-16.563-17.253-30.972-19.576-30.972-19.576 4.855 5.181 7.205 18.946 5.49 19.522C12.481 38.797 4.636 55.42 4.636 55.42c2.01-1.667 10.542-9.562 29.803-12.82-2.732 2.224-5.275 4.344-5.275 4.344z"/>
  <path d="M48.956 13.797c8.688 4.345 16.26 15.021 16.26 15.021C63.054 18.301 48.42-1.485 48.648.088c1.023 7.074.308 13.709.308 13.709zM24.182 64.871l-.367 3.663h3.493L26.096 80.65l.052.1-.116-.049c-4.422-.377-8.464-1.26-12.168-2.65-4.443-1.736-9.339-4.688-10.602-8.999C1.68 63.016 5.72 58.355 8.58 56.122l-.083 5.213c1.536-4.98 5.37-9.553 5.37-9.553C4.342 57.032 1.42 62.137.337 65.822c-.445 1.657-.373 2.979-.218 4.422.607 3.34 2.623 5.725 5.03 7.719 5.5 4.383 12.52 6.611 20.374 7.648l.125-.035-.056.098-.93 9.297h-3.37l-.368 3.664H36.26l.367-3.664h-3.453l.874-8.812-.059-.123.141.059c3.041.035 7.543-.062 7.543-.062l.726-8.021h-2.06l-.967 2.785c-1.798.172-4.226.145-4.729.137l-.148.072.095-.148.093-.99 1.134-11.331h8.85l-.446 4.454h3.776l.814-8.117H24.182zm40 8.541c8.167 0 13.347 5.35 12.553 12.895-.367 3.49-1.982 6.531-4.77 8.953-2.976 2.59-6.19 3.717-10.584 3.717-8.107 0-13.452-5.406-12.682-12.727.787-7.489 7.207-12.838 15.484-12.838zm-6.491 13.007c-.681 6.475.67 9.686 3.937 9.686 3.435 0 5.456-3.154 6.143-9.686.673-6.42-.723-9.742-3.989-9.742-3.49 0-5.387 3.039-6.091 9.742z"/>
</svg>
