<?xml version="1.0" encoding="utf-8"?>
<svg viewBox="0 0 192.05353 184.98541" version="1.1" xmlns="http://www.w3.org/2000/svg">
  <path fill="#e24329" d="m 188.85676,73.212737 -0.27,-0.69 -26.14,-68.2200004 a 6.81,6.81 0 0 0 -2.69,-3.24 7,7 0 0 0 -8,0.43 7,7 0 0 0 -2.32,3.52 l -17.65,54.0000004 H 60.316755 l -17.65,-54.0000004 a 6.86,6.86 0 0 0 -2.32,-3.53 7,7 0 0 0 -8,-0.43 6.87,6.87 0 0 0 -2.69,3.24 L 3.4667555,72.482737 l -0.26,0.69 A 48.54,48.54 0 0 0 19.306755,129.27274 l 0.09,0.07 0.24,0.17 39.82,29.82 19.7,14.91 12,9.06 a 8.07,8.07 0 0 0 9.760005,0 l 12,-9.06 19.7,-14.91 40.06,-30 0.1,-0.08 a 48.56,48.56 0 0 0 16.08,-56.040003 z" />
  <path fill="#fc6d26" d="m 188.85676,73.212737 -0.27,-0.69 a 88.3,88.3 0 0 0 -35.15,15.8 L 96.026755,131.73274 c 19.550005,14.79 36.570005,27.64 36.570005,27.64 l 40.06,-30 0.1,-0.08 a 48.56,48.56 0 0 0 16.1,-56.080003 z" />
  <path fill="#fca326" d="m 59.456755,159.37274 19.7,14.91 12,9.06 a 8.07,8.07 0 0 0 9.760005,0 l 12,-9.06 19.7,-14.91 c 0,0 -17.04,-12.89 -36.590005,-27.64 -19.55,14.75 -36.57,27.64 -36.57,27.64 z" />
  <path fill="#fc6d26" d="m 38.606755,88.322737 a 88.19,88.19 0 0 0 -35.1399995,-15.84 l -0.26,0.69 A 48.54,48.54 0 0 0 19.306755,129.27274 l 0.09,0.07 0.24,0.17 39.82,29.82 c 0,0 17,-12.85 36.57,-27.64 z" />
</svg>
