<?xml version="1.0" encoding="utf-8"?>
<svg version="1.1" viewBox="0 0 28.661 28.53" xmlns="http://www.w3.org/2000/svg">
  <defs>
    <linearGradient id="a" x1="5.4844" x2="31.852" y1="28.195" y2="6.9961" gradientTransform="translate(-3.7273 -3.6336)" gradientUnits="userSpaceOnUse">
      <stop stop-color="#EB4A54" offset="0"/>
      <stop stop-color="#A6009D" offset="1"/>
    </linearGradient>
  </defs>
  <path fill="url(#a)" fill-rule="evenodd" d="m8.4285 4.2646c-1.1885-1.4164-3.4963-0.68881-3.6575 1.1532l-1.2397 14.17c-0.19216 2.1964 1.4326 4.1327 3.629 4.3248l12.411 1.0858c2.1964 0.1922 4.1327-1.4326 4.3249-3.6289l1.2397-14.17c0.1612-1.842-1.9852-2.9593-3.4016-1.7708l-3.4213 2.8708c-0.3922 0.3291-0.5883 0.4936-0.674 0.6956-0.0754 0.1777-0.0927 0.3747-0.0493 0.5628 0.0494 0.2138 0.2139 0.4099 0.543 0.8021l0.6929 0.8258c3.2018 3.8157 0.1919 9.5978-4.7703 9.1637l-0.6552-0.0574c-4.9621-0.4341-6.9223-6.651-3.1066-9.8528l0.8259-0.6929c0.3921-0.3291 0.5882-0.4936 0.6739-0.6956 0.0755-0.1777 0.0927-0.3747 0.0493-0.5628-0.0494-0.2138-0.2139-0.4099-0.543-0.802zm7.6244 1.3418c-0.3922 0.32906-0.5883 0.49358-0.8021 0.54295-0.1881 0.04342-0.3851 0.02619-0.5628-0.04924-0.202-0.08574-0.3665-0.28182-0.6956-0.67398l-2.8708-3.4213c-3.2018-3.8158-9.4187-1.8556-9.8528 3.1066l-1.2397 14.17c-0.36138 4.1306 2.6942 7.7721 6.8249 8.1335l12.411 1.0858c4.1306 0.3614 7.7721-2.6942 8.1335-6.8248l1.2398-14.17c0.4341-4.9622-5.348-7.9721-9.1637-4.7703zm-0.6136 7.0134c-0.3291-0.3922-0.4936-0.5883-0.6956-0.674-0.1777-0.0754-0.3747-0.0927-0.5628-0.0493-0.2138 0.0494-0.4099 0.2139-0.802 0.543l-0.8259 0.6929c-1.4164 1.1886-0.6888 3.4963 1.1532 3.6575l0.6552 0.0573c1.842 0.1612 2.9594-1.9852 1.7708-3.4016z"/>
</svg>
