<svg viewBox="0 0 22 22" xmlns="http://www.w3.org/2000/svg">
  <path d="M17.2157092,5.77867177 C19.7540781,6.33430315 21.19871,6.97441415 21.4428953,8.28919117 C21.6786614,9.56790311 21.7922222,12.5265425 21.7922222,16.2168519 C21.7922222,19.7641407 16.6852464,21.9991852 10.8961111,21.9991852 C5.10543329,21.9991852 0,19.7644399 0,16.2168519 C0,12.5004182 0.112076267,9.56325459 0.34906275,8.29061824 C0.686975255,6.45907046 4.60796229,5.42954805 8.96296296,5.1435411 L8.96296296,4.62283482 C8.43662045,4.12906278 8.11881481,3.4285138 8.11881481,2.67055556 C8.11881481,1.19913276 9.30513632,0 10.7738889,0 C12.2440918,0 13.431,1.19854909 13.431,2.67055556 C13.431,3.43691683 13.1063864,4.14419289 12.5693333,4.63859036 C12.5309223,4.6739506 12.5697226,5.13275961 12.5697226,5.13275961 C14.1027254,5.23728953 15.7953293,5.46776042 17.2157092,5.77867177 Z" id="Combined-Shape" fill="#222222"></path>
  <path d="M20.2412222,8.51237037 C20.4787407,9.80059259 20.57,13.0394815 20.57,16.2168519 C20.57,18.9762222 15.7096296,20.776963 10.8961111,20.776963 C6.08014815,20.776963 1.22222222,18.9762222 1.22222222,16.2168519 C1.22222222,13.0402963 1.31103704,9.801 1.551,8.51237037 C1.77303704,7.30888889 6.86644444,6.41992593 10.2006667,6.30544444 L10.2006667,3.99707407 C9.6967037,3.77503704 9.34103704,3.26537037 9.34103704,2.67055556 C9.34103704,1.87122222 9.98311111,1.22222222 10.7738889,1.22222222 C11.5667037,1.22222222 12.2087778,1.87122222 12.2087778,2.67055556 C12.2087778,3.26537037 11.8535185,3.77503704 11.3471111,3.99707407 L11.3471111,6.29851852 C14.6699259,6.37714815 20.0122593,7.27955556 20.2412222,8.51237037 Z M6.53562963,12.4833704 C7.72159259,12.4833704 8.68592593,13.4574815 8.68592593,14.6564815 C8.68592593,15.8554815 7.72159259,16.8304074 6.53562963,16.8304074 C5.3517037,16.8304074 4.38777778,15.8554815 4.38777778,14.6564815 C4.38777778,13.4574815 5.3517037,12.4833704 6.53562963,12.4833704 Z M7.25307407,16.1048148 C7.64866667,16.1048148 7.97051852,15.7792963 7.97051852,15.3824815 C7.97051852,14.9824074 7.64866667,14.6568889 7.25307407,14.6568889 C6.85788889,14.6568889 6.53562963,14.9824074 6.53562963,15.3824815 C6.53562963,15.7792963 6.85788889,16.1048148 7.25307407,16.1048148 Z M3.31262963,14.6564815 C3.31262963,16.4572222 4.75648148,17.9165556 6.53562963,17.9165556 C8.31722222,17.9165556 9.76107407,16.4572222 9.76107407,14.6564815 C9.76107407,12.8565556 8.31722222,11.3964074 6.53562963,11.3964074 C4.75648148,11.3964074 3.31262963,12.8565556 3.31262963,14.6564815 Z M13.3727407,19.4325185 C13.6505926,19.2821852 13.7524444,18.9293704 13.6037407,18.6486667 C13.4525926,18.3655185 13.1038519,18.2628519 12.8264074,18.4156296 C12.8174444,18.4168519 12.0600741,18.8148889 10.8891852,18.8148889 C9.7297037,18.8148889 8.98577778,18.4241852 8.96581481,18.4156296 C8.68796296,18.262037 8.34166667,18.3651111 8.19051852,18.6445926 C8.03733333,18.9248889 8.13918519,19.2772963 8.41703704,19.4325185 C8.45696296,19.4549259 9.40988889,19.9735556 10.8891852,19.9735556 C12.3664444,19.9735556 13.3307778,19.4549259 13.3727407,19.4325185 Z M15.2692222,12.4833704 C16.4555926,12.4833704 17.4195185,13.4574815 17.4195185,14.6564815 C17.4195185,15.8554815 16.4551852,16.8304074 15.2692222,16.8304074 C14.0852963,16.8304074 13.1213704,15.8554815 13.1213704,14.6564815 C13.1213704,13.4574815 14.0852963,12.4833704 15.2692222,12.4833704 Z M15.9870741,16.1048148 C16.3822593,16.1048148 16.7041111,15.7792963 16.7045185,15.3824815 C16.7045185,14.9824074 16.3826667,14.6568889 15.9870741,14.6568889 C15.5918889,14.6568889 15.2696296,14.9824074 15.2696296,15.3824815 C15.2696296,15.7792963 15.5918889,16.1048148 15.9870741,16.1048148 Z M15.2541481,17.9165556 C17.0357407,17.9165556 18.4795926,16.4572222 18.4795926,14.6564815 C18.4795926,12.8565556 17.0357407,11.3964074 15.2541481,11.3964074 C13.4725556,11.3964074 12.0287037,12.8565556 12.0287037,14.6564815 C12.0287037,16.4572222 13.4725556,17.9165556 15.2541481,17.9165556 Z" id="Combined-Shape-Copy" fill="#FFFFFF"></path>
</svg>
